<?xml version="1.0" encoding="utf-8"?>
<!-- Generator: Adobe Illustrator 23.0.0, SVG Export Plug-In . SVG Version: 6.00 Build 0)  -->
<svg version="1.1" xmlns="http://www.w3.org/2000/svg" xmlns:xlink="http://www.w3.org/1999/xlink" x="0px" y="0px"
	 viewBox="0 0 85 81.8" style="enable-background:new 0 0 85 81.8;" xml:space="preserve">
<style type="text/css">
	.st1{fill:#5A8BB9;}
	.st0{fill:#FFFFFF;}
</style>
<g>
	<path class="st0" d="M0,48.5V11.3C0,5,5,0,11.3,0h62.4C80,0,85,5.1,85,11.3v37.1c0,3.8-1.9,7.3-5,9.4l-34.3,23
		c-1.9,1.3-4.4,1.3-6.3,0L5.1,57.9C1.9,55.8,0,52.2,0,48.5z"/>
	<path class="st1" d="M56.7,35.5c0,0.5,0,1-0.1,1.4c-0.1,0.8-0.5,1.4-1.2,1.7c-2.2,1-3.7,3.2-3.7,5.8c0,0.2,0,0.3,0,0.5
		c0.1,0.8-0.2,1.6-0.9,2.1c-0.8,0.5-1.6,1-2.4,1.4c-0.7,0.3-1.5,0.3-2.2-0.2c-2-1.4-4.6-1.6-6.9-0.3c-0.1,0.1-0.3,0.2-0.4,0.3
		c-0.7,0.5-1.5,0.6-2.2,0.2C35.8,48,35,47.5,34.3,47c-0.6-0.4-1-1.2-0.9-2c0.2-2.4-0.9-4.8-3.2-6.1c-0.1-0.1-0.3-0.2-0.4-0.2
		c-0.7-0.3-1.2-1-1.3-1.8c-0.1-0.5-0.1-1-0.1-1.4c0-0.5,0-1,0.1-1.4c0.1-0.7,0.5-1.4,1.2-1.7c2.2-1,3.7-3.2,3.7-5.8
		c0-0.2,0-0.3,0-0.5c-0.1-0.8,0.2-1.6,0.9-2.1c0.8-0.6,1.6-1,2.4-1.4c0.7-0.3,1.5-0.3,2.2,0.2c2,1.4,4.6,1.6,6.9,0.3
		c0.1-0.1,0.3-0.2,0.4-0.3c0.7-0.5,1.5-0.6,2.2-0.2c0.9,0.4,1.7,0.9,2.4,1.4c0.6,0.4,1,1.2,0.9,2c-0.2,2.4,0.9,4.8,3.2,6.1
		c0.1,0.1,0.3,0.2,0.4,0.2c0.7,0.3,1.2,1,1.3,1.8C56.7,34.5,56.7,35,56.7,35.5z"/>
</g>
</svg>
